<?xml version="1.0" standalone="no"?><!DOCTYPE svg PUBLIC "-//W3C//DTD SVG 1.1//EN" "http://www.w3.org/Graphics/SVG/1.1/DTD/svg11.dtd"><svg t="1533180730441" class="icon" style="" viewBox="0 0 1024 1024" version="1.1" xmlns="http://www.w3.org/2000/svg" p-id="3048" xmlns:xlink="http://www.w3.org/1999/xlink" width="200" height="200"><defs><style type="text/css"></style></defs><path d="M969.206046 483.377102 55.095829 483.377102c-48.554856 0-70.231551-60.95835-32.577976-91.614557L479.57245 19.647479c18.972097-15.446807 46.183855-15.446807 65.156976 0l457.05562 372.116089C1039.438621 422.418752 1017.760902 483.377102 969.206046 483.377102zM46.496987 434.835549l931.308925 0L512.151449 55.720046 46.496987 434.835549z" p-id="3049"></path><path d="M852.515371 1013.766938 168.199817 1013.766938c-27.124777 0-49.114604-21.989827-49.114604-49.114604l0-529.33583 782.543739 0 0 529.33583C901.629975 991.777111 879.640148 1013.766938 852.515371 1013.766938zM181.66141 967.562617 839.053778 967.562617c9.041934 0 16.371876-7.329942 16.371876-16.371876L855.425653 481.519802 165.289534 481.519802l0 469.670939C165.289534 960.232674 172.619476 967.562617 181.66141 967.562617z" p-id="3050"></path><path d="M849.39531 325.109496 697.485505 201.430662l0-79.994915c0-24.030299 19.48068-43.51098 43.51098-43.51098l64.887846 0c24.030299 0 43.51098 19.48068 43.51098 43.51098L849.39531 325.109496zM738.417753 181.973518l70.044286 57.027831L808.462039 133.361357c0-8.010441-6.493901-14.503319-14.503319-14.503319L752.922095 118.858038c-8.010441 0-14.503319 6.493901-14.503319 14.503319L738.418776 181.973518z" p-id="3051"></path><path d="M636.910894 1013.766938 386.264321 1013.766938 386.264321 774.696004c0-27.124777 21.988804-49.114604 49.114604-49.114604l152.417365 0c27.124777 0 49.114604 21.989827 49.114604 49.114604L636.910894 1013.766938zM432.468642 967.562617l158.237931 0 0-179.406043c0-9.041934-7.329942-16.371876-16.371876-16.371876L448.840518 771.784698c-9.041934 0-16.371876 7.329942-16.371876 16.371876L432.468642 967.562617z" p-id="3052"></path></svg>